<svg xmlns="http://www.w3.org/2000/svg" xmlns:xlink="http://www.w3.org/1999/xlink" viewBox="0 0 1525.91 405.11"><defs><style>.a379c303-f837-40b6-a391-6c493b5fffdd,.a9a0c76c-7b23-414f-ac73-231c2713ff88,.aa4bb481-3653-4924-a9f1-a06c59b63317,.aca525b8-e19c-4e79-9231-c4712ddc28ad,.bc466833-1831-43b1-9ca5-b0d7ed805669,.bccde713-3e4c-4a8e-9601-aac43fe622ea,.be9c09c0-0142-4ba7-98c6-3e1a16d97e81,.f4c78edc-7503-4046-98fe-d4d3a5ec9f9c,.f91fdccb-c881-450c-9112-511b24980a73,.ff6de174-97fd-40d9-8c47-265d26db152e{fill:none;stroke-linecap:round;stroke-linejoin:round;stroke-width:10px;}.bc466833-1831-43b1-9ca5-b0d7ed805669{stroke:#abaaaa;}.aca525b8-e19c-4e79-9231-c4712ddc28ad{stroke:#c6c6c6;}.aa4bb481-3653-4924-a9f1-a06c59b63317{stroke:#ddd;}.bccde713-3e4c-4a8e-9601-aac43fe622ea{stroke:url(#b5c941e2-6553-48ba-b118-49cef882ff26);}.be9c09c0-0142-4ba7-98c6-3e1a16d97e81{stroke:url(#f7604ac4-d92b-4d44-a755-baa012d4b168);}.ff6de174-97fd-40d9-8c47-265d26db152e{stroke:url(#f1fa48f0-d815-47e2-96cb-36422846051a);}.a379c303-f837-40b6-a391-6c493b5fffdd{stroke:url(#a3072dc1-2242-444a-8de5-48fc23dbbc09);}.a9a0c76c-7b23-414f-ac73-231c2713ff88{stroke:#f08960;}.f4c78edc-7503-4046-98fe-d4d3a5ec9f9c{stroke:#9e9d9d;}.f91fdccb-c881-450c-9112-511b24980a73{stroke:#f4b0a8;}</style><radialGradient id="b5c941e2-6553-48ba-b118-49cef882ff26" cx="20.67" cy="-333.51" r="154.97" gradientTransform="translate(211.62 529.09)" gradientUnits="userSpaceOnUse"><stop offset="0" stop-color="#d6d6d6"/><stop offset="1" stop-color="gray"/></radialGradient><radialGradient id="f7604ac4-d92b-4d44-a755-baa012d4b168" cx="449.35" cy="115.2" r="100.99" gradientTransform="matrix(0.93, -0.07, -0.07, 0.93, -186.75, 130.72)" gradientUnits="userSpaceOnUse"><stop offset="0" stop-color="#d6d6d6"/><stop offset="1" stop-color="#ababab"/></radialGradient><radialGradient id="f1fa48f0-d815-47e2-96cb-36422846051a" cx="10.66" cy="-339.56" r="124.65" xlink:href="#b5c941e2-6553-48ba-b118-49cef882ff26"/><radialGradient id="a3072dc1-2242-444a-8de5-48fc23dbbc09" cx="5.6" cy="-323.49" r="147.12" xlink:href="#b5c941e2-6553-48ba-b118-49cef882ff26"/></defs><title>RentLOGO</title><g id="f31acac2-6fe8-44e2-ab8d-4107222eb7fe" data-name="logo"><polyline class="bc466833-1831-43b1-9ca5-b0d7ed805669" points="222.28 360.74 331.99 315.3 377.43 205.59 331.99 95.88 222.28 50.44 112.57 95.88 67.13 205.59 112.57 315.3"/><polyline class="aca525b8-e19c-4e79-9231-c4712ddc28ad" points="222.28 321.95 304.56 287.87 338.64 205.59 304.56 123.31 222.28 89.23"/><polyline class="aca525b8-e19c-4e79-9231-c4712ddc28ad" points="140 123.31 105.92 205.59 140 287.87"/><polygon class="aa4bb481-3653-4924-a9f1-a06c59b63317" points="222.28 128.02 167.43 150.74 144.71 205.59 167.43 260.45 222.28 283.17 277.13 260.45 299.86 205.59 277.13 150.74 222.28 128.02"/><line class="bccde713-3e4c-4a8e-9601-aac43fe622ea" x1="82.32" y1="345.55" x2="382.26" y2="45.61"/><line class="be9c09c0-0142-4ba7-98c6-3e1a16d97e81" x1="304.56" y1="287.87" x2="140" y2="123.31"/><line class="ff6de174-97fd-40d9-8c47-265d26db152e" x1="222.28" y1="360.74" x2="222.28" y2="18.31"/><line class="a379c303-f837-40b6-a391-6c493b5fffdd" x1="14.22" y1="205.59" x2="420.21" y2="205.59"/><line class="a9a0c76c-7b23-414f-ac73-231c2713ff88" x1="127.48" y1="59.88" x2="93.18" y2="142.7"/><polygon class="a9a0c76c-7b23-414f-ac73-231c2713ff88" points="167.43 150.74 222.28 128.02 222.28 50.44 167.43 73.16 167.43 150.74"/><line class="a9a0c76c-7b23-414f-ac73-231c2713ff88" x1="167.43" y1="73.16" x2="112.57" y2="95.88"/><line class="a9a0c76c-7b23-414f-ac73-231c2713ff88" x1="167.43" y1="111.95" x2="93.18" y2="142.7"/><line class="a9a0c76c-7b23-414f-ac73-231c2713ff88" x1="167.43" y1="150.74" x2="140" y2="123.31"/><line class="a9a0c76c-7b23-414f-ac73-231c2713ff88" x1="133.14" y1="87.36" x2="140" y2="123.31"/><line class="a9a0c76c-7b23-414f-ac73-231c2713ff88" x1="110.33" y1="194.94" x2="140" y2="123.31"/><line class="a9a0c76c-7b23-414f-ac73-231c2713ff88" x1="167.43" y1="260.45" x2="112.57" y2="315.3"/><line class="a9a0c76c-7b23-414f-ac73-231c2713ff88" x1="112.57" y1="315.3" x2="198.58" y2="292.16"/><line class="a9a0c76c-7b23-414f-ac73-231c2713ff88" x1="149.41" y1="278.46" x2="192.87" y2="383.38"/><line class="a9a0c76c-7b23-414f-ac73-231c2713ff88" x1="135.1" y1="369.69" x2="159.55" y2="308.12"/><line class="a9a0c76c-7b23-414f-ac73-231c2713ff88" x1="195.03" y1="321.03" x2="167.41" y2="307.55"/><polyline class="a9a0c76c-7b23-414f-ac73-231c2713ff88" points="222.34 379.8 222.28 205.09 345.83 328.65"/><line class="a9a0c76c-7b23-414f-ac73-231c2713ff88" x1="222.28" y1="283.17" x2="277.13" y2="260.45"/><line class="a9a0c76c-7b23-414f-ac73-231c2713ff88" x1="224.13" y1="321.19" x2="304.56" y2="287.87"/><line class="a9a0c76c-7b23-414f-ac73-231c2713ff88" x1="226.3" y1="359.08" x2="331.99" y2="315.3"/></g><g id="a51fdaf8-111a-4a23-a872-2b647bd5be03" data-name="gray"><polygon class="f4c78edc-7503-4046-98fe-d4d3a5ec9f9c" points="725.86 163.83 689.1 163.83 663.11 191.8 663.11 231.35 689.1 259.32 725.86 259.32 751.85 231.35 751.85 191.8 725.86 163.83"/><line class="f4c78edc-7503-4046-98fe-d4d3a5ec9f9c" x1="538.57" y1="163.83" x2="538.57" y2="259.32"/><polyline class="f4c78edc-7503-4046-98fe-d4d3a5ec9f9c" points="538.62 204.26 576.1 163.93 624.69 163.83 624.69 231.35 598.7 259.32"/><line class="f4c78edc-7503-4046-98fe-d4d3a5ec9f9c" x1="421.33" y1="115.95" x2="421.33" y2="259.32"/><polyline class="f4c78edc-7503-4046-98fe-d4d3a5ec9f9c" points="501.85 163.83 465.7 163.83 421.33 206.54 465.7 259.32 501.85 259.32"/><polygon class="f4c78edc-7503-4046-98fe-d4d3a5ec9f9c" points="1348.32 163.24 1311.56 163.24 1285.57 191.21 1285.57 230.76 1311.56 258.73 1348.32 258.73 1374.31 230.76 1374.31 191.21 1348.32 163.24"/><polyline class="f4c78edc-7503-4046-98fe-d4d3a5ec9f9c" points="1374.31 230.56 1374.31 270.12 1348.32 298.09 1306.32 298.09 1286.97 280.08"/><polyline class="f4c78edc-7503-4046-98fe-d4d3a5ec9f9c" points="791.69 163.83 791.69 191.8 791.69 231.35 817.68 259.32 841.36 231.39 865.74 259.32 891.73 231.35 891.73 191.8 891.73 163.83"/><line class="f4c78edc-7503-4046-98fe-d4d3a5ec9f9c" x1="841.71" y1="231.57" x2="841.71" y2="163.93"/><polyline class="f4c78edc-7503-4046-98fe-d4d3a5ec9f9c" points="1413.2 212.46 1501.94 212.46 1501.94 192.68 1475.95 164.71 1439.19 164.71 1413.2 192.68 1413.2 232.24 1439.19 260.21 1475.95 260.21 1499.19 238.83"/></g><g id="fee6479c-6be4-44e7-8940-554c04c335f3" data-name="light-orange"><polyline class="f91fdccb-c881-450c-9112-511b24980a73" points="936.77 166.69 978.06 122.26 1011.03 122.26"/><line class="f91fdccb-c881-450c-9112-511b24980a73" x1="1114.87" y1="162.32" x2="1114.87" y2="259.32"/><line class="f91fdccb-c881-450c-9112-511b24980a73" x1="1267.93" y1="146.18" x2="1235.63" y2="146.18"/></g><g id="ec68065c-5251-411e-9c2f-985b18f5218c" data-name="orange"><line class="a9a0c76c-7b23-414f-ac73-231c2713ff88" x1="934.16" y1="259.32" x2="934.16" y2="115.95"/><polyline class="a9a0c76c-7b23-414f-ac73-231c2713ff88" points="979.08 211.57 1067.83 211.57 1067.83 191.8 1041.84 163.83 1005.08 163.83 979.08 191.8 979.08 231.35 1005.08 259.32 1041.84 259.32 1065.07 237.95"/><polyline class="a9a0c76c-7b23-414f-ac73-231c2713ff88" points="1114.87 259.32 1114.87 201.34 1151.14 162.32 1195.62 162.32 1195.62 229.84 1168.6 258.92"/><polyline class="a9a0c76c-7b23-414f-ac73-231c2713ff88" points="1260.2 257.81 1234.21 229.69 1234.21 100.59"/></g></svg>